<?xml version="1.0" encoding="UTF-8" standalone="no"?>
<!DOCTYPE svg PUBLIC "-//W3C//DTD SVG 1.1//EN"
 "http://www.w3.org/Graphics/SVG/1.1/DTD/svg11.dtd">
<!-- Generated by graphviz version 2.42.4 (0)
 -->
<!-- Title: EagleSwarm Pages: 1 -->
<svg width="1922pt" height="1518pt"
 viewBox="0.00 0.00 1922.00 1518.00" xmlns="http://www.w3.org/2000/svg" xmlns:xlink="http://www.w3.org/1999/xlink">
<g id="graph0" class="graph" transform="scale(1 1) rotate(0) translate(18 1500)">
<title>EagleSwarm</title>
<polygon fill="white" stroke="transparent" points="-18,18 -18,-1500 1904,-1500 1904,18 -18,18"/>
<text text-anchor="middle" x="943" y="-1462" font-family="DejaVu Sans" font-size="20.00">EAGLE SWARM &#45; Operational Architecture and Safety Boundary</text>
<g id="clust1" class="cluster">
<title>cluster_ground</title>
<path fill="white" stroke="#94a3b8" d="M63,-1118C63,-1118 631,-1118 631,-1118 637,-1118 643,-1124 643,-1130 643,-1130 643,-1432 643,-1432 643,-1438 637,-1444 631,-1444 631,-1444 63,-1444 63,-1444 57,-1444 51,-1438 51,-1432 51,-1432 51,-1130 51,-1130 51,-1124 57,-1118 63,-1118"/>
<text text-anchor="middle" x="347" y="-1424" font-family="DejaVu Sans" font-size="20.00">Ground Station</text>
</g>
<g id="clust2" class="cluster">
<title>cluster_scout</title>
<path fill="white" stroke="#60a5fa" d="M477,-8C477,-8 1433,-8 1433,-8 1439,-8 1445,-14 1445,-20 1445,-20 1445,-200 1445,-200 1445,-206 1439,-212 1433,-212 1433,-212 477,-212 477,-212 471,-212 465,-206 465,-200 465,-200 465,-20 465,-20 465,-14 471,-8 477,-8"/>
<text text-anchor="middle" x="955" y="-192" font-family="DejaVu Sans" font-size="20.00">Scout &#45; scout_1</text>
</g>
<g id="clust3" class="cluster">
<title>cluster_worker</title>
<path fill="white" stroke="#60a5fa" d="M477,-906C477,-906 1433,-906 1433,-906 1439,-906 1445,-912 1445,-918 1445,-918 1445,-1098 1445,-1098 1445,-1104 1439,-1110 1433,-1110 1433,-1110 477,-1110 477,-1110 471,-1110 465,-1104 465,-1098 465,-1098 465,-918 465,-918 465,-912 471,-906 477,-906"/>
<text text-anchor="middle" x="955" y="-1090" font-family="DejaVu Sans" font-size="20.00">Mapping / Worker &#45; worker_1</text>
</g>
<g id="clust4" class="cluster">
<title>cluster_relay</title>
<path fill="white" stroke="#60a5fa" d="M477,-220C477,-220 1433,-220 1433,-220 1439,-220 1445,-226 1445,-232 1445,-232 1445,-412 1445,-412 1445,-418 1439,-424 1433,-424 1433,-424 477,-424 477,-424 471,-424 465,-418 465,-412 465,-412 465,-232 465,-232 465,-226 471,-220 477,-220"/>
<text text-anchor="middle" x="955" y="-404" font-family="DejaVu Sans" font-size="20.00">Coordinator / Relay &#45; relay_1</text>
</g>
<g id="clust5" class="cluster">
<title>cluster_groundrelay</title>
<path fill="white" stroke="#22c55e" d="M392.5,-546C392.5,-546 696.5,-546 696.5,-546 702.5,-546 708.5,-552 708.5,-558 708.5,-558 708.5,-677 708.5,-677 708.5,-683 702.5,-689 696.5,-689 696.5,-689 392.5,-689 392.5,-689 386.5,-689 380.5,-683 380.5,-677 380.5,-677 380.5,-558 380.5,-558 380.5,-552 386.5,-546 392.5,-546"/>
<text text-anchor="middle" x="544.5" y="-669" font-family="DejaVu Sans" font-size="20.00">Scored Ground Relay Extension</text>
</g>
<!-- operator -->
<g id="node1" class="node">
<title>operator</title>
<path fill="#dbeafe" stroke="#334155" d="M201,-1345C201,-1345 125,-1345 125,-1345 119,-1345 113,-1339 113,-1333 113,-1333 113,-1321 113,-1321 113,-1315 119,-1309 125,-1309 125,-1309 201,-1309 201,-1309 207,-1309 213,-1315 213,-1321 213,-1321 213,-1333 213,-1333 213,-1339 207,-1345 201,-1345"/>
<text text-anchor="middle" x="163" y="-1324.5" font-family="DejaVu Sans" font-size="10.00">Human Operator</text>
</g>
<!-- mission -->
<g id="node2" class="node">
<title>mission</title>
<path fill="#dbeafe" stroke="#334155" d="M623,-1250C623,-1250 465,-1250 465,-1250 459,-1250 453,-1244 453,-1238 453,-1238 453,-1226 453,-1226 453,-1220 459,-1214 465,-1214 465,-1214 623,-1214 623,-1214 629,-1214 635,-1220 635,-1226 635,-1226 635,-1238 635,-1238 635,-1244 629,-1250 623,-1250"/>
<text text-anchor="middle" x="544" y="-1235" font-family="DejaVu Sans" font-size="10.00">Mission Orchestrator</text>
<text text-anchor="middle" x="544" y="-1224" font-family="DejaVu Sans" font-size="10.00">health gates + coverage + target</text>
</g>
<!-- operator&#45;&gt;mission -->
<g id="edge1" class="edge">
<title>operator&#45;&gt;mission</title>
<path fill="none" stroke="#475569" d="M213.21,-1319.31C245.47,-1313.92 288.47,-1306.07 326,-1297 379.16,-1284.16 438.6,-1266.09 481.81,-1252.26"/>
<polygon fill="#475569" stroke="#475569" points="482.68,-1254.55 488.6,-1250.08 481.18,-1249.88 482.68,-1254.55"/>
</g>
<!-- bus -->
<g id="node7" class="node">
<title>bus</title>
<path fill="#fef3c7" stroke="#d97706" stroke-width="1.5" d="M883,-615C883,-615 1874,-615 1874,-615 1880,-615 1886,-621 1886,-627 1886,-627 1886,-639 1886,-639 1886,-645 1880,-651 1874,-651 1874,-651 883,-651 883,-651 877,-651 871,-645 871,-639 871,-639 871,-627 871,-627 871,-621 877,-615 883,-615"/>
<text text-anchor="middle" x="955.5" y="-630.5" font-family="DejaVu Sans" font-size="10.00">ROS 2 DDS SWARM CONTRACT</text>
<polyline fill="none" stroke="#d97706" stroke-width="1.5" points="1040,-615 1040,-651 "/>
<text text-anchor="middle" x="1073" y="-630.5" font-family="DejaVu Sans" font-size="10.00">heartbeat</text>
<polyline fill="none" stroke="#d97706" stroke-width="1.5" points="1106,-615 1106,-651 "/>
<text text-anchor="middle" x="1149" y="-630.5" font-family="DejaVu Sans" font-size="10.00">target beacon</text>
<polyline fill="none" stroke="#d97706" stroke-width="1.5" points="1192,-615 1192,-651 "/>
<text text-anchor="middle" x="1211.5" y="-630.5" font-family="DejaVu Sans" font-size="10.00">bids</text>
<polyline fill="none" stroke="#d97706" stroke-width="1.5" points="1231,-615 1231,-651 "/>
<text text-anchor="middle" x="1277" y="-630.5" font-family="DejaVu Sans" font-size="10.00">retained award</text>
<polyline fill="none" stroke="#d97706" stroke-width="1.5" points="1323,-615 1323,-651 "/>
<text text-anchor="middle" x="1369.5" y="-630.5" font-family="DejaVu Sans" font-size="10.00">retained leader</text>
<polyline fill="none" stroke="#d97706" stroke-width="1.5" points="1416,-615 1416,-651 "/>
<text text-anchor="middle" x="1439" y="-630.5" font-family="DejaVu Sans" font-size="10.00">faults</text>
<polyline fill="none" stroke="#d97706" stroke-width="1.5" points="1462,-615 1462,-651 "/>
<text text-anchor="middle" x="1504.5" y="-630.5" font-family="DejaVu Sans" font-size="10.00">safety events</text>
<polyline fill="none" stroke="#d97706" stroke-width="1.5" points="1547,-615 1547,-651 "/>
<text text-anchor="middle" x="1601.5" y="-630.5" font-family="DejaVu Sans" font-size="10.00">mission command</text>
<polyline fill="none" stroke="#d97706" stroke-width="1.5" points="1656,-615 1656,-651 "/>
<text text-anchor="middle" x="1713.5" y="-630.5" font-family="DejaVu Sans" font-size="10.00">role&#45;change service</text>
<polyline fill="none" stroke="#d97706" stroke-width="1.5" points="1771,-615 1771,-651 "/>
<text text-anchor="middle" x="1828.5" y="-630.5" font-family="DejaVu Sans" font-size="10.00">go&#45;to&#45;target actions</text>
</g>
<!-- mission&#45;&gt;bus -->
<g id="edge8" class="edge">
<title>mission&#45;&gt;bus</title>
<path fill="none" stroke="#475569" d="M588.09,-1213.95C626.57,-1195.39 680.99,-1162.6 708.5,-1116 759.66,-1029.34 668.82,-967.68 734,-891 766.9,-852.3 796.09,-876.87 844,-860 1029.49,-794.7 1242.57,-696.87 1333.1,-654.18"/>
<polygon fill="#475569" stroke="#475569" points="1334.38,-656.29 1339.67,-651.08 1332.29,-651.86 1334.38,-656.29"/>
<text text-anchor="middle" x="789" y="-893.6" font-family="DejaVu Sans" font-size="8.00">sector / land / return&#45;home</text>
</g>
<!-- dashboard -->
<g id="node3" class="node">
<title>dashboard</title>
<path fill="#e0f2fe" stroke="#334155" d="M226,-1284C226,-1284 100,-1284 100,-1284 94,-1284 88,-1278 88,-1272 88,-1272 88,-1260 88,-1260 88,-1254 94,-1248 100,-1248 100,-1248 226,-1248 226,-1248 232,-1248 238,-1254 238,-1260 238,-1260 238,-1272 238,-1272 238,-1278 232,-1284 226,-1284"/>
<text text-anchor="middle" x="163" y="-1269" font-family="DejaVu Sans" font-size="10.00">Digital Twin</text>
<text text-anchor="middle" x="163" y="-1258" font-family="DejaVu Sans" font-size="10.00">read&#45;only operational view</text>
</g>
<!-- dashboard&#45;&gt;bus -->
<g id="edge9" class="edge">
<title>dashboard&#45;&gt;bus</title>
<path fill="none" stroke="#475569" d="M245.05,-1269.42C274.26,-1266.36 305.12,-1257.44 326,-1236 434.31,-1124.79 275.03,-1004.9 380.5,-891 482.31,-781.06 567.07,-862.5 708.5,-813 720.32,-808.86 722.22,-805.27 734,-801 926.69,-731.18 1161.53,-677.42 1287.44,-651.01"/>
<polygon fill="#475569" stroke="#475569" points="244.82,-1266.98 238.06,-1270.05 245.25,-1271.87 244.82,-1266.98"/>
<text text-anchor="middle" x="544" y="-893.6" font-family="DejaVu Sans" font-size="8.00">subscribe</text>
</g>
<!-- evidence -->
<g id="node4" class="node">
<title>evidence</title>
<path fill="#dcfce7" stroke="#334155" d="M255,-1223C255,-1223 71,-1223 71,-1223 65,-1223 59,-1217 59,-1211 59,-1211 59,-1199 59,-1199 59,-1193 65,-1187 71,-1187 71,-1187 255,-1187 255,-1187 261,-1187 267,-1193 267,-1199 267,-1199 267,-1211 267,-1211 267,-1217 261,-1223 255,-1223"/>
<text text-anchor="middle" x="163" y="-1208" font-family="DejaVu Sans" font-size="10.00">Acceptance Evidence Runner</text>
<text text-anchor="middle" x="163" y="-1197" font-family="DejaVu Sans" font-size="10.00">5 faults + separation &#45;&gt; machine PASS</text>
</g>
<!-- evidence&#45;&gt;bus -->
<g id="edge10" class="edge">
<title>evidence&#45;&gt;bus</title>
<path fill="none" stroke="#475569" d="M274.16,-1204.33C293.86,-1199.17 312.4,-1190.13 326,-1175 378.3,-1116.82 316.43,-893.16 353,-824 360.32,-810.16 366.16,-808.28 380.5,-802 515.56,-742.81 563.01,-776.03 708.5,-752 908.75,-718.93 1142,-676.56 1273.45,-652.33"/>
<polygon fill="#475569" stroke="#475569" points="273.4,-1201.99 267.16,-1206 274.53,-1206.76 273.4,-1201.99"/>
<polygon fill="#475569" stroke="#475569" points="1273.97,-654.73 1280.41,-651.05 1273.08,-649.91 1273.97,-654.73"/>
<text text-anchor="middle" x="544" y="-804.6" font-family="DejaVu Sans" font-size="8.00">inject + verify</text>
</g>
<!-- role -->
<g id="node5" class="node">
<title>role</title>
<path fill="#e0f2fe" stroke="#334155" d="M249.5,-1162C249.5,-1162 76.5,-1162 76.5,-1162 70.5,-1162 64.5,-1156 64.5,-1150 64.5,-1150 64.5,-1138 64.5,-1138 64.5,-1132 70.5,-1126 76.5,-1126 76.5,-1126 249.5,-1126 249.5,-1126 255.5,-1126 261.5,-1132 261.5,-1138 261.5,-1138 261.5,-1150 261.5,-1150 261.5,-1156 255.5,-1162 249.5,-1162"/>
<text text-anchor="middle" x="163" y="-1147" font-family="DejaVu Sans" font-size="10.00">Role Manager</text>
<text text-anchor="middle" x="163" y="-1136" font-family="DejaVu Sans" font-size="10.00">/swarm/request_role_change service</text>
</g>
<!-- role&#45;&gt;bus -->
<g id="edge11" class="edge">
<title>role&#45;&gt;bus</title>
<path fill="none" stroke="#475569" d="M167.03,-1118.63C178,-1040.27 223.67,-803.65 380.5,-741 417.05,-726.4 899.59,-678.52 1179.7,-651.68"/>
<polygon fill="#475569" stroke="#475569" points="164.58,-1118.44 166.08,-1125.7 169.44,-1119.09 164.58,-1118.44"/>
<polygon fill="#475569" stroke="#475569" points="1179.95,-654.11 1186.69,-651.01 1179.48,-649.24 1179.95,-654.11"/>
<text text-anchor="middle" x="544" y="-743.6" font-family="DejaVu Sans" font-size="8.00">service request / response</text>
</g>
<!-- actions -->
<g id="node6" class="node">
<title>actions</title>
<path fill="#e0f2fe" stroke="#334155" d="M240,-1406C240,-1406 86,-1406 86,-1406 80,-1406 74,-1400 74,-1394 74,-1394 74,-1382 74,-1382 74,-1376 80,-1370 86,-1370 86,-1370 240,-1370 240,-1370 246,-1370 252,-1376 252,-1382 252,-1382 252,-1394 252,-1394 252,-1400 246,-1406 240,-1406"/>
<text text-anchor="middle" x="163" y="-1391" font-family="DejaVu Sans" font-size="10.00">Namespaced GoToTarget Actions</text>
<text text-anchor="middle" x="163" y="-1380" font-family="DejaVu Sans" font-size="10.00">/drone/&lt;id&gt;/go_to_target</text>
</g>
<!-- actions&#45;&gt;bus -->
<g id="edge12" class="edge">
<title>actions&#45;&gt;bus</title>
<path fill="none" stroke="#475569" d="M259.15,-1383.6C373.2,-1374.56 566.68,-1347 708.5,-1263 784.95,-1217.72 806.59,-1196.6 844,-1116 884.73,-1028.24 815.97,-979.57 871,-900 970.36,-756.31 1172.02,-684.07 1288.68,-652.9"/>
<polygon fill="#475569" stroke="#475569" points="258.88,-1381.16 252.09,-1384.14 259.26,-1386.05 258.88,-1381.16"/>
<polygon fill="#475569" stroke="#475569" points="1289.41,-655.24 1295.55,-651.09 1288.15,-650.51 1289.41,-655.24"/>
<text text-anchor="middle" x="544" y="-1371.6" font-family="DejaVu Sans" font-size="8.00">goal / feedback / result</text>
</g>
<!-- scout_adapter -->
<g id="node8" class="node">
<title>scout_adapter</title>
<path fill="#f8fafc" stroke="#334155" d="M571.5,-113C571.5,-113 516.5,-113 516.5,-113 510.5,-113 504.5,-107 504.5,-101 504.5,-101 504.5,-89 504.5,-89 504.5,-83 510.5,-77 516.5,-77 516.5,-77 571.5,-77 571.5,-77 577.5,-77 583.5,-83 583.5,-89 583.5,-89 583.5,-101 583.5,-101 583.5,-107 577.5,-113 571.5,-113"/>
<text text-anchor="middle" x="544" y="-92.5" font-family="DejaVu Sans" font-size="10.00">PX4 Adapter</text>
</g>
<!-- scout_adapter&#45;&gt;bus -->
<g id="edge15" class="edge">
<title>scout_adapter&#45;&gt;bus</title>
<path fill="none" stroke="#475569" d="M590.76,-99.66C666.43,-108.4 812.45,-129.98 844,-169 917.32,-259.68 800.76,-336.9 871,-430 953.93,-539.92 1105.98,-590.46 1221.92,-613.62"/>
<polygon fill="#475569" stroke="#475569" points="590.89,-97.21 583.66,-98.85 590.34,-102.08 590.89,-97.21"/>
<polygon fill="#475569" stroke="#475569" points="1221.46,-616.03 1228.8,-614.97 1222.4,-611.22 1221.46,-616.03"/>
</g>
<!-- scout_px4 -->
<g id="node11" class="node">
<title>scout_px4</title>
<path fill="#e2e8f0" stroke="#334155" d="M1425,-87C1425,-87 1332,-87 1332,-87 1326,-87 1320,-81 1320,-75 1320,-75 1320,-63 1320,-63 1320,-57 1326,-51 1332,-51 1332,-51 1425,-51 1425,-51 1431,-51 1437,-57 1437,-63 1437,-63 1437,-75 1437,-75 1437,-81 1431,-87 1425,-87"/>
<text text-anchor="middle" x="1378.5" y="-66.5" font-family="DejaVu Sans" font-size="10.00">PX4 SITL + MAVROS</text>
</g>
<!-- scout_adapter&#45;&gt;scout_px4 -->
<g id="edge2" class="edge">
<title>scout_adapter&#45;&gt;scout_px4</title>
<path fill="none" stroke="#475569" d="M591.1,-93.56C730.94,-89.19 1150.68,-76.08 1312.7,-71.02"/>
<polygon fill="#475569" stroke="#475569" points="590.68,-91.12 583.76,-93.79 590.83,-96.02 590.68,-91.12"/>
<polygon fill="#475569" stroke="#475569" points="1312.84,-73.47 1319.76,-70.8 1312.68,-68.57 1312.84,-73.47"/>
<text text-anchor="middle" x="789" y="-91.6" font-family="DejaVu Sans" font-size="8.00">state / setpoints</text>
</g>
<!-- scout_safety -->
<g id="node9" class="node">
<title>scout_safety</title>
<path fill="#fee2e2" stroke="#334155" d="M603,-52C603,-52 485,-52 485,-52 479,-52 473,-46 473,-40 473,-40 473,-28 473,-28 473,-22 479,-16 485,-16 485,-16 603,-16 603,-16 609,-16 615,-22 615,-28 615,-28 615,-40 615,-40 615,-46 609,-52 603,-52"/>
<text text-anchor="middle" x="544" y="-31.5" font-family="DejaVu Sans" font-size="10.00">Onboard Safety Authority</text>
</g>
<!-- scout_safety&#45;&gt;scout_px4 -->
<g id="edge3" class="edge">
<title>scout_safety&#45;&gt;scout_px4</title>
<path fill="none" stroke="#475569" d="M615.26,-36.95C774.15,-43.63 1159.16,-59.82 1312.7,-66.28"/>
<polygon fill="#475569" stroke="#475569" points="1312.74,-68.73 1319.84,-66.58 1312.95,-63.83 1312.74,-68.73"/>
<text text-anchor="middle" x="789" y="-49.6" font-family="DejaVu Sans" font-size="8.00">override</text>
</g>
<!-- scout_replica -->
<g id="node10" class="node">
<title>scout_replica</title>
<path fill="#ede9fe" stroke="#334155" d="M589.5,-174C589.5,-174 498.5,-174 498.5,-174 492.5,-174 486.5,-168 486.5,-162 486.5,-162 486.5,-150 486.5,-150 486.5,-144 492.5,-138 498.5,-138 498.5,-138 589.5,-138 589.5,-138 595.5,-138 601.5,-144 601.5,-150 601.5,-150 601.5,-162 601.5,-162 601.5,-168 595.5,-174 589.5,-174"/>
<text text-anchor="middle" x="544" y="-153.5" font-family="DejaVu Sans" font-size="10.00">Coordinator Replica</text>
</g>
<!-- scout_replica&#45;&gt;bus -->
<g id="edge18" class="edge">
<title>scout_replica&#45;&gt;bus</title>
<path fill="none" stroke="#475569" d="M609.17,-159.81C687.31,-165.86 812.78,-180.6 844,-214 910.07,-284.67 811.91,-353.39 871,-430 955.66,-539.77 1109.04,-590.38 1224.9,-613.59"/>
<polygon fill="#475569" stroke="#475569" points="608.92,-157.33 601.76,-159.25 608.55,-162.22 608.92,-157.33"/>
<polygon fill="#475569" stroke="#475569" points="1224.44,-616 1231.78,-614.95 1225.39,-611.19 1224.44,-616"/>
</g>
<!-- worker_adapter -->
<g id="node12" class="node">
<title>worker_adapter</title>
<path fill="#f8fafc" stroke="#334155" d="M571.5,-1011C571.5,-1011 516.5,-1011 516.5,-1011 510.5,-1011 504.5,-1005 504.5,-999 504.5,-999 504.5,-987 504.5,-987 504.5,-981 510.5,-975 516.5,-975 516.5,-975 571.5,-975 571.5,-975 577.5,-975 583.5,-981 583.5,-987 583.5,-987 583.5,-999 583.5,-999 583.5,-1005 577.5,-1011 571.5,-1011"/>
<text text-anchor="middle" x="544" y="-990.5" font-family="DejaVu Sans" font-size="10.00">PX4 Adapter</text>
</g>
<!-- worker_adapter&#45;&gt;bus -->
<g id="edge16" class="edge">
<title>worker_adapter&#45;&gt;bus</title>
<path fill="none" stroke="#475569" d="M590.64,-997.05C627.12,-997.67 677.16,-992.27 708.5,-963 742.02,-931.69 702.39,-896.23 734,-863 769.27,-825.92 795.52,-845.38 844,-829 1021.1,-769.14 1228.26,-690.54 1323.99,-653.71"/>
<polygon fill="#475569" stroke="#475569" points="590.6,-994.59 583.54,-996.85 590.47,-999.49 590.6,-994.59"/>
<polygon fill="#475569" stroke="#475569" points="1325.04,-655.94 1330.69,-651.14 1323.28,-651.36 1325.04,-655.94"/>
</g>
<!-- worker_px4 -->
<g id="node15" class="node">
<title>worker_px4</title>
<path fill="#e2e8f0" stroke="#334155" d="M1425,-1041C1425,-1041 1332,-1041 1332,-1041 1326,-1041 1320,-1035 1320,-1029 1320,-1029 1320,-1017 1320,-1017 1320,-1011 1326,-1005 1332,-1005 1332,-1005 1425,-1005 1425,-1005 1431,-1005 1437,-1011 1437,-1017 1437,-1017 1437,-1029 1437,-1029 1437,-1035 1431,-1041 1425,-1041"/>
<text text-anchor="middle" x="1378.5" y="-1020.5" font-family="DejaVu Sans" font-size="10.00">PX4 SITL + MAVROS</text>
</g>
<!-- worker_adapter&#45;&gt;worker_px4 -->
<g id="edge4" class="edge">
<title>worker_adapter&#45;&gt;worker_px4</title>
<path fill="none" stroke="#475569" d="M591.1,-994.66C730.94,-999.7 1150.68,-1014.83 1312.7,-1020.66"/>
<polygon fill="#475569" stroke="#475569" points="590.84,-992.2 583.76,-994.4 590.67,-997.1 590.84,-992.2"/>
<polygon fill="#475569" stroke="#475569" points="1312.67,-1023.12 1319.76,-1020.92 1312.85,-1018.22 1312.67,-1023.12"/>
<text text-anchor="middle" x="789" y="-1005.6" font-family="DejaVu Sans" font-size="8.00">state / setpoints</text>
</g>
<!-- worker_safety -->
<g id="node13" class="node">
<title>worker_safety</title>
<path fill="#fee2e2" stroke="#334155" d="M603,-1072C603,-1072 485,-1072 485,-1072 479,-1072 473,-1066 473,-1060 473,-1060 473,-1048 473,-1048 473,-1042 479,-1036 485,-1036 485,-1036 603,-1036 603,-1036 609,-1036 615,-1042 615,-1048 615,-1048 615,-1060 615,-1060 615,-1066 609,-1072 603,-1072"/>
<text text-anchor="middle" x="544" y="-1051.5" font-family="DejaVu Sans" font-size="10.00">Onboard Safety Authority</text>
</g>
<!-- worker_safety&#45;&gt;worker_px4 -->
<g id="edge5" class="edge">
<title>worker_safety&#45;&gt;worker_px4</title>
<path fill="none" stroke="#475569" d="M615.26,-1051.38C774.15,-1045.47 1159.16,-1031.13 1312.7,-1025.41"/>
<polygon fill="#475569" stroke="#475569" points="1312.94,-1027.86 1319.84,-1025.15 1312.75,-1022.96 1312.94,-1027.86"/>
<text text-anchor="middle" x="789" y="-1048.6" font-family="DejaVu Sans" font-size="8.00">override</text>
</g>
<!-- worker_replica -->
<g id="node14" class="node">
<title>worker_replica</title>
<path fill="#ede9fe" stroke="#334155" d="M589.5,-950C589.5,-950 498.5,-950 498.5,-950 492.5,-950 486.5,-944 486.5,-938 486.5,-938 486.5,-926 486.5,-926 486.5,-920 492.5,-914 498.5,-914 498.5,-914 589.5,-914 589.5,-914 595.5,-914 601.5,-920 601.5,-926 601.5,-926 601.5,-938 601.5,-938 601.5,-944 595.5,-950 589.5,-950"/>
<text text-anchor="middle" x="544" y="-929.5" font-family="DejaVu Sans" font-size="10.00">Coordinator Replica</text>
</g>
<!-- worker_replica&#45;&gt;bus -->
<g id="edge19" class="edge">
<title>worker_replica&#45;&gt;bus</title>
<path fill="none" stroke="#475569" d="M602.84,-911.18C635.35,-898.11 675.84,-879.48 708.5,-857 721.57,-848 720.37,-840.13 734,-832 777.95,-805.79 795.11,-813.12 844,-798 1012.86,-745.79 1211.78,-684.26 1312.31,-653.17"/>
<polygon fill="#475569" stroke="#475569" points="601.64,-909.02 596.03,-913.88 603.44,-913.58 601.64,-909.02"/>
<polygon fill="#475569" stroke="#475569" points="1313.12,-655.48 1319.08,-651.07 1311.67,-650.8 1313.12,-655.48"/>
</g>
<!-- relay_adapter -->
<g id="node16" class="node">
<title>relay_adapter</title>
<path fill="#f8fafc" stroke="#334155" d="M571.5,-325C571.5,-325 516.5,-325 516.5,-325 510.5,-325 504.5,-319 504.5,-313 504.5,-313 504.5,-301 504.5,-301 504.5,-295 510.5,-289 516.5,-289 516.5,-289 571.5,-289 571.5,-289 577.5,-289 583.5,-295 583.5,-301 583.5,-301 583.5,-313 583.5,-313 583.5,-319 577.5,-325 571.5,-325"/>
<text text-anchor="middle" x="544" y="-304.5" font-family="DejaVu Sans" font-size="10.00">PX4 Adapter</text>
</g>
<!-- relay_adapter&#45;&gt;bus -->
<g id="edge17" class="edge">
<title>relay_adapter&#45;&gt;bus</title>
<path fill="none" stroke="#475569" d="M590.98,-311.23C624.36,-315.31 670.2,-322.99 708.5,-337 786.65,-365.58 796.09,-393.77 871,-430 1029.03,-506.43 1223.66,-578.58 1319.11,-612.59"/>
<polygon fill="#475569" stroke="#475569" points="590.87,-308.75 583.63,-310.37 590.3,-313.62 590.87,-308.75"/>
<polygon fill="#475569" stroke="#475569" points="1318.39,-614.94 1325.81,-614.98 1320.03,-610.32 1318.39,-614.94"/>
</g>
<!-- relay_px4 -->
<g id="node19" class="node">
<title>relay_px4</title>
<path fill="#e2e8f0" stroke="#334155" d="M1425,-299C1425,-299 1332,-299 1332,-299 1326,-299 1320,-293 1320,-287 1320,-287 1320,-275 1320,-275 1320,-269 1326,-263 1332,-263 1332,-263 1425,-263 1425,-263 1431,-263 1437,-269 1437,-275 1437,-275 1437,-287 1437,-287 1437,-293 1431,-299 1425,-299"/>
<text text-anchor="middle" x="1378.5" y="-278.5" font-family="DejaVu Sans" font-size="10.00">PX4 SITL + MAVROS</text>
</g>
<!-- relay_adapter&#45;&gt;relay_px4 -->
<g id="edge6" class="edge">
<title>relay_adapter&#45;&gt;relay_px4</title>
<path fill="none" stroke="#475569" d="M591.1,-305.56C730.94,-301.19 1150.68,-288.08 1312.7,-283.02"/>
<polygon fill="#475569" stroke="#475569" points="590.68,-303.12 583.76,-305.79 590.83,-308.02 590.68,-303.12"/>
<polygon fill="#475569" stroke="#475569" points="1312.84,-285.47 1319.76,-282.8 1312.68,-280.57 1312.84,-285.47"/>
<text text-anchor="middle" x="789" y="-303.6" font-family="DejaVu Sans" font-size="8.00">state / setpoints</text>
</g>
<!-- relay_safety -->
<g id="node17" class="node">
<title>relay_safety</title>
<path fill="#fee2e2" stroke="#334155" d="M603,-264C603,-264 485,-264 485,-264 479,-264 473,-258 473,-252 473,-252 473,-240 473,-240 473,-234 479,-228 485,-228 485,-228 603,-228 603,-228 609,-228 615,-234 615,-240 615,-240 615,-252 615,-252 615,-258 609,-264 603,-264"/>
<text text-anchor="middle" x="544" y="-243.5" font-family="DejaVu Sans" font-size="10.00">Onboard Safety Authority</text>
</g>
<!-- relay_safety&#45;&gt;relay_px4 -->
<g id="edge7" class="edge">
<title>relay_safety&#45;&gt;relay_px4</title>
<path fill="none" stroke="#475569" d="M615.26,-248.95C774.15,-255.63 1159.16,-271.82 1312.7,-278.28"/>
<polygon fill="#475569" stroke="#475569" points="1312.74,-280.73 1319.84,-278.58 1312.95,-275.83 1312.74,-280.73"/>
<text text-anchor="middle" x="789" y="-261.6" font-family="DejaVu Sans" font-size="8.00">override</text>
</g>
<!-- relay_replica -->
<g id="node18" class="node">
<title>relay_replica</title>
<path fill="#c4b5fd" stroke="#334155" stroke-width="1.5" d="M589.5,-386C589.5,-386 498.5,-386 498.5,-386 492.5,-386 486.5,-380 486.5,-374 486.5,-374 486.5,-362 486.5,-362 486.5,-356 492.5,-350 498.5,-350 498.5,-350 589.5,-350 589.5,-350 595.5,-350 601.5,-356 601.5,-362 601.5,-362 601.5,-374 601.5,-374 601.5,-380 595.5,-386 589.5,-386"/>
<text text-anchor="middle" x="544" y="-365.5" font-family="DejaVu Sans" font-size="10.00">Coordinator Replica</text>
</g>
<!-- relay_replica&#45;&gt;bus -->
<g id="edge20" class="edge">
<title>relay_replica&#45;&gt;bus</title>
<path fill="none" stroke="#475569" d="M608.54,-387.7C638.82,-397.12 675.55,-408.59 708.5,-419 931.67,-489.5 1196.24,-574.57 1314.69,-612.74"/>
<polygon fill="#475569" stroke="#475569" points="609.19,-385.34 601.78,-385.6 607.74,-390.02 609.19,-385.34"/>
<polygon fill="#475569" stroke="#475569" points="1314.18,-615.15 1321.6,-614.97 1315.69,-610.49 1314.18,-615.15"/>
</g>
<!-- ground_agent -->
<g id="node20" class="node">
<title>ground_agent</title>
<path fill="#dcfce7" stroke="#334155" d="M605.5,-651C605.5,-651 482.5,-651 482.5,-651 476.5,-651 470.5,-645 470.5,-639 470.5,-639 470.5,-627 470.5,-627 470.5,-621 476.5,-615 482.5,-615 482.5,-615 605.5,-615 605.5,-615 611.5,-615 617.5,-621 617.5,-627 617.5,-627 617.5,-639 617.5,-639 617.5,-645 611.5,-651 605.5,-651"/>
<text text-anchor="middle" x="544" y="-636" font-family="DejaVu Sans" font-size="10.00">Generic SwarmAgent</text>
<text text-anchor="middle" x="544" y="-625" font-family="DejaVu Sans" font-size="10.00">same heartbeat/bid/award</text>
</g>
<!-- ground_agent&#45;&gt;bus -->
<g id="edge21" class="edge">
<title>ground_agent&#45;&gt;bus</title>
<path fill="none" stroke="#475569" d="M625.04,-633C684.25,-633 770.49,-633 863.65,-633"/>
<polygon fill="#475569" stroke="#475569" points="624.79,-630.55 617.79,-633 624.79,-635.45 624.79,-630.55"/>
<polygon fill="#475569" stroke="#475569" points="863.65,-635.45 870.65,-633 863.65,-630.55 863.65,-635.45"/>
</g>
<!-- ground_replica -->
<g id="node21" class="node">
<title>ground_replica</title>
<path fill="#ede9fe" stroke="#334155" d="M589.5,-590C589.5,-590 498.5,-590 498.5,-590 492.5,-590 486.5,-584 486.5,-578 486.5,-578 486.5,-566 486.5,-566 486.5,-560 492.5,-554 498.5,-554 498.5,-554 589.5,-554 589.5,-554 595.5,-554 601.5,-560 601.5,-566 601.5,-566 601.5,-578 601.5,-578 601.5,-584 595.5,-590 589.5,-590"/>
<text text-anchor="middle" x="544" y="-569.5" font-family="DejaVu Sans" font-size="10.00">Coordinator Replica</text>
</g>
<!-- ground_replica&#45;&gt;bus -->
<g id="edge22" class="edge">
<title>ground_replica&#45;&gt;bus</title>
<path fill="none" stroke="#475569" d="M608.65,-576.66C717.46,-584.64 944.86,-601.3 1124.27,-614.45"/>
<polygon fill="#475569" stroke="#475569" points="608.73,-574.21 601.57,-576.14 608.37,-579.1 608.73,-574.21"/>
<polygon fill="#475569" stroke="#475569" points="1124.28,-616.9 1131.44,-614.97 1124.64,-612.02 1124.28,-616.9"/>
</g>
<!-- separation -->
<g id="node22" class="node">
<title>separation</title>
<path fill="#fee2e2" stroke="#dc2626" d="M630,-529C630,-529 458,-529 458,-529 452,-529 446,-523 446,-517 446,-517 446,-505 446,-505 446,-499 452,-493 458,-493 458,-493 630,-493 630,-493 636,-493 642,-499 642,-505 642,-505 642,-517 642,-517 642,-523 636,-529 630,-529"/>
<text text-anchor="middle" x="544" y="-514" font-family="DejaVu Sans" font-size="10.00">Independent 3&#45;D Separation Monitor</text>
<text text-anchor="middle" x="544" y="-503" font-family="DejaVu Sans" font-size="10.00">hold / resume / near&#45;miss log</text>
</g>
<!-- separation&#45;&gt;bus -->
<g id="edge14" class="edge">
<title>separation&#45;&gt;bus</title>
<path fill="none" stroke="#475569" d="M649.35,-526.29C800.96,-548.51 1082.01,-589.7 1247.08,-613.89"/>
<polygon fill="#475569" stroke="#475569" points="649.41,-523.82 642.13,-525.23 648.7,-528.67 649.41,-523.82"/>
<polygon fill="#475569" stroke="#475569" points="1247.08,-616.36 1254.36,-614.95 1247.79,-611.52 1247.08,-616.36"/>
<text text-anchor="middle" x="789" y="-555.6" font-family="DejaVu Sans" font-size="8.00">heartbeats / hold&#45;resume</text>
</g>
<!-- perception -->
<g id="node23" class="node">
<title>perception</title>
<path fill="#fce7f3" stroke="#334155" d="M622.5,-468C622.5,-468 465.5,-468 465.5,-468 459.5,-468 453.5,-462 453.5,-456 453.5,-456 453.5,-444 453.5,-444 453.5,-438 459.5,-432 465.5,-432 465.5,-432 622.5,-432 622.5,-432 628.5,-432 634.5,-438 634.5,-444 634.5,-444 634.5,-456 634.5,-456 634.5,-462 628.5,-468 622.5,-468"/>
<text text-anchor="middle" x="544" y="-453" font-family="DejaVu Sans" font-size="10.00">Simulation Perception Contract</text>
<text text-anchor="middle" x="544" y="-442" font-family="DejaVu Sans" font-size="10.00">RGB cue &#45;&gt; thermal confirmation</text>
</g>
<!-- perception&#45;&gt;bus -->
<g id="edge13" class="edge">
<title>perception&#45;&gt;bus</title>
<path fill="none" stroke="#475569" d="M634.66,-465.73C658.68,-470.14 684.62,-475.08 708.5,-480 921.52,-523.88 1170.92,-582.98 1296.49,-613.28"/>
<polygon fill="#475569" stroke="#475569" points="1296.1,-615.7 1303.48,-614.97 1297.25,-610.94 1296.1,-615.7"/>
<text text-anchor="middle" x="789" y="-509.6" font-family="DejaVu Sans" font-size="8.00">confirmed beacon</text>
</g>
<!-- safety_note -->
<g id="node24" class="node">
<title>safety_note</title>
<polygon fill="#fff1f2" stroke="#e11d48" points="320,-264 0,-264 0,-228 326,-228 326,-258 320,-264"/>
<polyline fill="none" stroke="#e11d48" points="320,-264 320,-258 "/>
<polyline fill="none" stroke="#e11d48" points="326,-258 320,-258 "/>
<text text-anchor="middle" x="163" y="-249" font-family="DejaVu Sans" font-size="10.00">Safety precedence:</text>
<text text-anchor="middle" x="163" y="-238" font-family="DejaVu Sans" font-size="10.00">shutdown &gt; land &gt; battery RTB &gt; GPS/collision hold &gt; mission</text>
</g>
<!-- safety_note&#45;&gt;scout_safety -->
<g id="edge23" class="edge">
<title>safety_note&#45;&gt;scout_safety</title>
<path fill="none" stroke="#475569" stroke-dasharray="5,2" d="M179.51,-227.75C212.38,-190.37 293.23,-105.17 380.5,-64 409.17,-50.47 443.37,-43.04 472.98,-38.95"/>
</g>
<!-- safety_note&#45;&gt;worker_safety -->
<g id="edge24" class="edge">
<title>safety_note&#45;&gt;worker_safety</title>
<path fill="none" stroke="#475569" stroke-dasharray="5,2" d="M166.42,-264.03C181.06,-370.37 261.15,-914.81 380.5,-1024 405.16,-1046.56 441.03,-1054.8 472.8,-1057.08"/>
</g>
<!-- safety_note&#45;&gt;relay_safety -->
<g id="edge25" class="edge">
<title>safety_note&#45;&gt;relay_safety</title>
<path fill="none" stroke="#475569" stroke-dasharray="5,2" d="M326.1,-246C377.37,-246 431.37,-246 472.67,-246"/>
</g>
</g>
</svg>
